<?xml version="1.0" encoding="UTF-8" standalone="no"?>
<svg
   xmlns:dc="http://purl.org/dc/elements/1.1/"
   xmlns:cc="http://creativecommons.org/ns#"
   xmlns:rdf="http://www.w3.org/1999/02/22-rdf-syntax-ns#"
   xmlns:svg="http://www.w3.org/2000/svg"
   xmlns="http://www.w3.org/2000/svg"
   xmlns:sodipodi="http://sodipodi.sourceforge.net/DTD/sodipodi-0.dtd"
   xmlns:inkscape="http://www.inkscape.org/namespaces/inkscape"
   height="776"
   width="2856.8569"
   id="svg2"
   version="1.1"
   inkscape:version="0.91 r13725"
   sodipodi:docname="1468790961_logo-github.svg">
  <metadata
     id="metadata10">
    <rdf:RDF>
      <cc:Work
         rdf:about="">
        <dc:format>image/svg+xml</dc:format>
        <dc:type
           rdf:resource="http://purl.org/dc/dcmitype/StillImage" />
        <dc:title></dc:title>
      </cc:Work>
    </rdf:RDF>
  </metadata>
  <defs
     id="defs8" />
  <sodipodi:namedview
     pagecolor="#ffffff"
     bordercolor="#666666"
     borderopacity="1"
     objecttolerance="10"
     gridtolerance="10"
     guidetolerance="10"
     inkscape:pageopacity="0"
     inkscape:pageshadow="2"
     inkscape:window-width="640"
     inkscape:window-height="480"
     id="namedview6"
     showgrid="false"
     fit-margin-top="0"
     fit-margin-left="0"
     fit-margin-right="0"
     fit-margin-bottom="0"
     inkscape:zoom="0.11516152"
     inkscape:cx="1428.4285"
     inkscape:cy="264"
     inkscape:window-x="57"
     inkscape:window-y="34"
     inkscape:window-maximized="0"
     inkscape:current-layer="svg2" />
  <path
     d="m 552.73,332.135 -241.173,0 c -6.205,0 -11.25,5.045 -11.25,11.297 l 0,117.887 c 0,6.252 5.045,11.272 11.25,11.272 l 94.109,0 0,146.542 c 0,0 -21.145,7.057 -79.496,7.057 -68.914,0 -165.156,-25.244 -165.156,-236.795 0,-211.642 100.197,-239.491 194.307,-239.491 81.465,0 116.514,14.304 138.869,21.241 7.01,2.203 13.404,-4.831 13.404,-11.105 L 534.543,46.13 c 0,-2.912 -1.041,-6.417 -4.262,-8.785 C 521.186,30.952 465.865,0 326.168,0 165.133,0 0,68.487 0,397.757 0,726.979 189.051,776 348.381,776 c 131.883,0 212.021,-56.314 212.021,-56.314 3.268,-1.801 3.6,-6.395 3.6,-8.479 l 0,-367.775 c -0.047,-6.205 -5.115,-11.297 -11.272,-11.297 z m 1219.651,-304.001 -135.695,0 c -6.252,0 -11.271,5.044 -11.271,11.296 l 0,262.393 -211.619,0 0,-262.393 c 0,-6.252 -5.068,-11.296 -11.178,-11.296 l -135.838,0 c -6.111,0 -11.084,5.044 -11.084,11.296 l 0,710.473 c 0,6.299 5.021,11.32 11.084,11.32 l 135.838,0 c 6.203,0 11.178,-5.068 11.178,-11.32 l 0,-303.836 211.619,0 -0.475,303.883 c 0,6.3 5.021,11.272 11.084,11.272 l 135.885,0 c 6.252,0 11.131,-5.068 11.131,-11.272 l 0.473,-710.521 c 0.094,-6.251 -4.974,-11.295 -11.132,-11.295 z M 714.949,44.237 c -48.357,0 -87.574,39.572 -87.574,88.403 0,48.855 39.217,88.428 87.574,88.428 48.357,0 87.527,-39.572 87.527,-88.428 10e-4,-48.83 -39.169,-88.403 -87.527,-88.403 z m 77.912,227.889 c 0,-6.205 -5.02,-11.344 -11.131,-11.344 l -135.41,0 c -6.348,0 -11.746,6.394 -11.746,12.67 0,0 0,394.654 0,469.867 0,13.735 8.572,17.903 19.703,17.903 0,0 57.688,0 121.959,0 13.311,0 16.814,-6.536 16.814,-18.188 -0.094,-25.197 -0.094,-123.808 -0.094,-142.942 -0.095,-18.187 -0.095,-327.966 -0.095,-327.966 z m 1505.112,-10.278 -134.701,0 c -6.158,0 -11.084,5.092 -11.084,11.344 l 0,348.31 c 0,0 -34.244,25.197 -82.934,25.197 -48.547,0 -61.525,-22.024 -61.525,-69.719 0,-47.553 0,-303.835 0,-303.835 0,-6.252 -5.068,-11.345 -11.131,-11.345 l -136.643,0 c -6.252,0 -11.178,5.093 -11.178,11.345 0,0 0,185.521 0,326.807 0,141.284 78.766,175.906 186.99,175.906 88.854,0 160.609,-49.115 160.609,-49.115 0,0 3.363,25.766 5.068,28.844 1.422,3.078 5.447,6.158 9.852,6.158 l 86.58,0 c 6.158,0 11.178,-5.069 11.178,-11.321 l 0.379,-477.278 c -0.283,-6.207 -5.304,-11.298 -11.46,-11.298 z m 368.959,-16.009 c -76.539,0 -128.592,34.148 -128.592,34.148 l 0,-240.557 c 0,-6.252 -5.068,-11.296 -11.131,-11.296 l -136.264,0 c -6.109,0 -11.131,5.044 -11.131,11.296 l -0.379,710.521 c 0,6.3 5.068,11.272 11.225,11.272 0,0 94.773,0 94.869,0 4.215,0 7.389,-2.179 9.805,-5.968 2.369,-3.837 5.73,-32.775 5.73,-32.775 0,0 55.557,52.763 161.035,52.763 123.807,0 194.758,-62.804 194.758,-281.906 0,-218.819 -113.386,-247.498 -189.925,-247.498 z m -53.141,400.386 c -46.701,-1.421 -78.34,-22.64 -78.34,-22.64 l 0,-225.07 c 0,0 31.307,-19.206 69.672,-22.593 48.547,-4.31 95.438,10.326 95.438,126.13 -0.239,122.007 -21.362,146.114 -86.77,144.173 z m -1428.666,-2.558 c -5.969,0 -21.219,2.368 -36.85,2.368 -49.92,0 -66.971,-23.256 -66.971,-53.331 0,-30.218 0,-199.85 0,-199.85 l 101.926,0 c 6.252,0 11.178,-5.044 11.178,-11.343 l 0,-109.48 c 0.094,-6.299 -4.926,-11.344 -11.178,-11.344 l -101.926,0 -0.143,-134.535 c 0,-5.092 -2.699,-7.625 -8.572,-7.625 l -138.728,0 c -5.352,0 -8.336,2.391 -8.336,7.578 l 0,139.035 c 0,0 -69.576,16.79 -74.266,18.188 -4.641,1.326 -8.051,5.684 -8.051,10.822 l 0,87.408 c 0,6.252 5.068,11.344 11.178,11.344 l 71.139,0 c 0,0 0,91.34 0,210.222 0,156.109 109.553,171.455 183.439,171.455 33.723,0 74.076,-10.988 80.848,-13.356 4.074,-1.421 6.395,-5.637 6.395,-10.136 l 0.047,-96.101 c 0,-6.298 -5.256,-11.414 -11.129,-11.319 z"
     id="path4"
     inkscape:connector-curvature="0" />
</svg>
