<svg xmlns="http://www.w3.org/2000/svg" width="87" height="22"><title>webflow--blue</title><desc>Created with Sketch.</desc><g fill="none"><g fill="#3B67B3"><path d="M52.47.13l-2.1 17.02-.44 2.1c.06 0 .1 0 .17 0 2.27-.02 3.88-2.02 4.2-4.53l1.2-9.77C55.9 1.98 54.1.13 52.48.13zm29.9 9.15s-1.45 4.56-1.56 4.95c-.03-.4-1.1-8.58-1.1-8.58-2.47 0-3.8 1.76-4.5 3.63 0 0-1.76 4.58-1.9 4.96 0-.36-.28-4.9-.28-4.9-.15-2.3-2.23-3.68-3.92-3.68l2.03 12.4c2.6 0 4-1.76 4.72-3.62 0 0 1.56-4.04 1.62-4.22.02.18 1.12 7.85 1.12 7.85 2.6 0 4-1.65 4.75-3.44L87 5.66c-2.57 0-3.92 1.75-4.62 3.62zm-18.05 2.4c-.15 1.5-.82 3.8-2.65 3.8-1.84 0-1.58-2.7-1.4-3.97.2-1.36.96-3.3 2.6-3.3 1.48 0 1.62 1.75 1.45 3.47zm-1.17-6.24c-2.9 0-5.63 2.14-6.47 5.5-.83 3.34.44 7.3 4.7 7.3 4.25 0 6.7-4.13 6.7-7.55 0-3.44-2.32-5.26-4.93-5.26zm-13.04.22h-2.5v-.13c.18-1.64.57-2.5 1.84-2.63.87-.1 1.26-.55 1.36-1.03.07-.4.3-1.74.3-1.74-5.03-.03-6.6 2.15-7 5.45l-.02.08h-.05c-.82 0-1.72.93-1.88 2.1l-.05.44h1.67l-1.4 11.64-.43 2.1c.06 0 .12 0 .17 0 2.37-.1 3.88-1.94 4.2-4.64l1.1-9.1h.8c.77 0 1.68-.78 1.85-2.07l.06-.47zm-12.8 6.1c-.36 2.2-1.58 3.67-2.76 3.67-1.2 0-1.7-.52-1.7-.52.23-1.9.38-3.08.8-4.1.44-1 1.47-2.62 2.53-2.62 1.04 0 1.5 1.4 1.14 3.6zm.34-6.4c-1.6 0-2.83.88-3.87 2.16L34.7.05c-2.13 0-3.87 1.85-4.2 4.6l-1.62 13.3c1.22 0 2.52-.34 3.23-1.25.64.82 1.57 1.46 2.95 1.46 3.6 0 6.06-4.17 6.06-8.08 0-3.58-1.73-4.7-3.46-4.7zM13.28 9.3s-1.45 4.56-1.56 4.95c-.04-.4-1.1-8.58-1.1-8.58-2.48 0-3.8 1.76-4.5 3.63 0 0-1.78 4.58-1.92 4.96 0-.36-.27-4.9-.27-4.9C3.78 7.03 1.7 5.65 0 5.65l2.03 12.4c2.6 0 4-1.76 4.73-3.62 0 0 1.55-4.04 1.62-4.22 0 .18 1.12 7.85 1.12 7.85 2.6 0 4-1.65 4.76-3.44l3.65-8.97c-2.57 0-3.92 1.75-4.62 3.62zm11.46-.4c-.05.47-.25 1.3-3.67 1.76.73-2.56 2.1-2.75 2.74-2.75.6 0 .98.45.94.97zm3.35-.27c0-1.56-1.53-3.2-4.15-3.2-2.95 0-6.2 2.15-6.7 6.46-.5 4.37 2.22 6.3 4.95 6.3s4.16-1.07 5.62-2.5c-1.26-1.58-2.88-.84-3.2-.7-.33.18-.77.42-1.68.42-1.06 0-2.13-.48-2.13-2.44 6.77-.65 7.3-2.77 7.3-4.33z"/></g></g></svg>