<svg xmlns="http://www.w3.org/2000/svg" width="298" height="420"><title>Slice 1</title><g fill="none"><path id="Shape" fill="#131313" d="M233.16 15.68h-24.68l25.67 27.86V56.8h-52.88V41.28h25.67L181.27 13.4V.14h51.9V15.7zm-62.37 0h-24.7l25.66 27.86V56.8H118.9V41.28h25.66L118.9 13.4V.14h51.9V15.7zm-61.8.62H82.38v24.32h26.64V56.8H63.44V.14h45.58V16.3zm0 0"/><path id="Shape" fill="#1572B6" d="M27.14 386.3L.07 82.66h297.45l-27.1 303.57L148.62 420l-121.5-33.7zm0 0"/><path id="Shape" fill="#33A9DC" d="M148.8 394.2l98.42-27.3 23.16-259.4H148.8v286.7zm0 0"/><path id="Shape" fill="#fff" d="M148.8 217.5h49.27l3.4-38.14H148.8v-37.24h93.37l-.9 10-9.14 102.6H148.8V217.5zm0 0"/><path id="Shape" fill="#EBEBEB" d="M149.02 314.2l-.16.05-41.48-11.2-2.65-29.7H67.35l5.22 58.47L148.85 353l.17-.05V314.2zm0 0"/><path fill="#fff" d="M194.9 253.16l-4.48 49.87-41.53 11.2V353l76.32-21.16.56-6.3 6.47-72.36H194.9zm0 0"/><path fill="#EBEBEB" d="M148.93 142.13v37.24H58.98l-.75-8.38-1.7-18.9-.9-10h93.3zm-.13 75.37v37.25h-40.95l-.75-8.38-1.7-18.88-.88-10h44.28zm0 0"/></g></svg>