<svg xmlns="http://www.w3.org/2000/svg" viewBox="0 0 512 512"><title>HTML5 Logo</title><path fill="#E44D26" d="M107.64 470.88l-33-370.26h362.73l-33.05 370.2L255.78 512z"/><path fill="#F16529" d="M256 480.52l120.03-33.27 28.24-316.36H256z"/><path fill="#EBEBEB" d="M256 268.22h-60.1l-4.14-46.5H256v-45.4H142.14l1.08 12.17 11.16 125.13H256zM256 386.15l-.2.06-50.57-13.65-3.24-36.22H156.4l6.35 71.3 93.02 25.83.2-.06z"/><path d="M108.38 0h23.08v22.8h21.1V0h23.1v69.04h-23.1V45.92h-21.1v23.12h-23.08V0zM206 22.9h-20.32V0h63.72v22.9h-20.33v46.14H206V22.9zM259.5 0h24.07l14.8 24.26L313.18 0h24.06v69.04h-22.98V34.82l-15.87 24.55h-.4l-15.9-24.55v34.22h-22.57V0zM348.72 0h23.08v46.22h32.46v22.82h-55.54V0z"/><path fill="#fff" d="M255.84 268.22v45.4h55.92l-5.27 58.9-50.66 13.67v47.24l93.1-25.8.68-7.68L360.3 280.4l1.1-12.18h-12.24zM255.84 176.3V221.72H365.53l.9-10.2 2.08-23.03 1.1-12.2z"/></svg>