<svg xmlns="http://www.w3.org/2000/svg" width="412.996" height="412.996"><path d="M393 28.34H20c-11.05 0-20 8.95-20 20v234c0 11.04 8.95 20 20 20h139.5v45.32h-54.3c-10.2 0-18.5 8.3-18.5 18.5s8.3 18.5 18.5 18.5h202.6c10.2 0 18.5-8.3 18.5-18.5s-8.3-18.5-18.5-18.5h-54.3v-45.32H393c11.04 0 20-8.96 20-20v-234c0-11.05-8.96-20-20-20zm-10 244H30v-214h353v214zm-288.4-95.7l63.08 29.33c1.63.76 3.36 1.14 5.16 1.14 2.34 0 4.6-.64 6.6-1.9 3.54-2.27 5.66-6.13 5.66-10.34v-.32c0-4.75-2.78-9.12-7.1-11.12l-39.45-18.32L168 146.75c4.32-2 7.1-6.37 7.1-11.12v-.32c0-4.2-2.12-8.05-5.66-10.3-1.97-1.27-4.25-1.93-6.6-1.93-1.8 0-3.57.4-5.17 1.13L94.6 153.52c-4.32 2-7.1 6.36-7.1 11.1v.9c0 4.73 2.78 9.1 7.1 11.1zm81.06 59.76c2.3 3.14 6 5.02 9.9 5.02h.32c5.35 0 10.04-3.43 11.67-8.52l41.56-128.76c1.2-3.7.55-7.82-1.75-10.97-2.3-3.15-6-5.03-9.9-5.03h-.32c-5.35 0-10.05 3.42-11.68 8.5l-41.56 128.8c-1.2 3.7-.53 7.8 1.77 10.95zm62.24-100.77c0 4.74 2.78 9.1 7.1 11.12l39.45 18.33L245 183.4c-4.32 2-7.1 6.38-7.1 11.13v.32c0 4.2 2.1 8.07 5.66 10.34 1.98 1.23 4.26 1.9 6.6 1.9 1.8 0 3.53-.38 5.17-1.14l63.08-29.34c4.33-2 7.1-6.37 7.1-11.1v-.9c0-4.74-2.8-9.1-7.1-11.1l-63.07-29.34c-1.6-.75-3.37-1.14-5.15-1.14-2.35 0-4.64.66-6.6 1.9-3.56 2.27-5.67 6.14-5.67 10.35v.32z"/></svg>